# xmcd
#
# Track frame offsets: 
#        150
#        18087
#        35240
#        50857
#        61675
#        75677
#        88847
#        108750
#        119070
#        133837
#        151007
#        170722
#
# Disc length: 2485 seconds
#
# Revision: 2
# Processed by: cddbd v1.5PL3 Copyright (c) Steve Scherf et al.
# Submitted via: ExactAudioCopy v0.95a3
#
DISCID=9f09b30c
DTITLE=Randy Travis - Full Circle
DYEAR=1996
DGENRE=Country
TTITLE0=Highway Junkie
TTITLE1=Price To Pay
TTITLE2=Long On Lonely (Short On Pride)
TTITLE3=Would I
TTITLE4=Future Mister Me
TTITLE5=Don't Take Your Love Away From Me
TTITLE6=Are We In Trouble Now
TTITLE7=If It Ain't One Thing It's Another
TTITLE8=I Wish It Would Rain
TTITLE9=King Of The Road
TTITLE10=I Can Almost Hear Her Wings
TTITLE11=Ants On A Log
EXTD=
EXTT0=
EXTT1=
EXTT2=
EXTT3=
EXTT4=
EXTT5=
EXTT6=
EXTT7=
EXTT8=
EXTT9=
EXTT10=
EXTT11=
PLAYORDER=
